<?xml version="1.0" standalone="no"?>
<!DOCTYPE svg PUBLIC "-//W3C//DTD SVG 20010904//EN"
 "http://www.w3.org/TR/2001/REC-SVG-20010904/DTD/svg10.dtd">
<svg version="1.0" xmlns="http://www.w3.org/2000/svg"
 width="932.000000pt" height="932.000000pt" viewBox="0 0 932.000000 932.000000"
 preserveAspectRatio="xMidYMid meet">
<metadata>
Created by potrace 1.14, written by Peter Selinger 2001-2017
</metadata>
<g transform="translate(0.000000,932.000000) scale(0.100000,-0.100000)"
fill="#000000" stroke="none">
<path d="M2102 8937 c-204 -204 -372 -374 -372 -377 0 -3 236 -5 525 -4 289 0
525 -1 525 -4 0 -2 -74 -78 -164 -168 l-164 -164 0 -2411 0 -2412 -363 -363
c-200 -200 -359 -364 -354 -365 6 0 435 -1 955 -2 l945 -2 0 -927 0 -928 402
-402 403 -403 556 0 556 0 654 654 c360 359 654 661 655 670 0 9 1 1044 1
2301 l0 2285 365 366 366 367 -774 0 c-559 0 -776 -4 -784 -12 -6 -6 -26 -22
-44 -36 -18 -14 -92 -73 -164 -132 -73 -59 -135 -107 -139 -108 -10 0 -10 -94
-10 1095 l0 1050 -402 403 -401 402 -1200 0 -1200 0 -373 -373z m2558 -567
l180 -185 0 -767 c0 -423 -3 -768 -7 -769 -5 0 -273 0 -596 -1 l-588 0 -180
-181 -179 -180 0 1135 0 1135 595 -1 594 -1 181 -185z m-4 -4766 l-185 -189 1
1255 0 1255 182 183 181 182 3 -1249 2 -1249 -184 -188z m-704 2272 c-9 -11
-84 -86 -167 -168 l-150 -149 0 -1067 0 -1067 -167 -3 c-92 -1 -244 -1 -339 0
l-171 3 166 166 166 166 0 1066 c0 707 3 1066 10 1069 6 2 158 3 339 3 325 0
329 0 313 -19z m2395 5 c-7 -8 -81 -83 -165 -167 l-154 -153 0 -1963 -1 -1962
-421 -424 c-231 -234 -427 -431 -434 -438 -16 -17 -12 -16 -186 -16 l-139 0
-188 188 -187 187 0 767 0 767 201 1 201 1 402 402 401 401 0 1202 c0 661 2
1207 5 1212 4 5 146 9 341 9 287 0 334 -2 324 -14z"/>
</g>
</svg>
