<?xml version="1.0" standalone="no"?>
<!DOCTYPE svg PUBLIC "-//W3C//DTD SVG 20010904//EN"
 "http://www.w3.org/TR/2001/REC-SVG-20010904/DTD/svg10.dtd">
<svg version="1.0" xmlns="http://www.w3.org/2000/svg"
 width="1240.000000pt" height="1240.000000pt" viewBox="0 0 1240.000000 1240.000000"
 preserveAspectRatio="xMidYMid meet">
<metadata>
Created by potrace 1.14, written by Peter Selinger 2001-2017
</metadata>
<g transform="translate(0.000000,1240.000000) scale(0.100000,-0.100000)"
fill="#000000" stroke="none">
<path d="M2794 11890 c-274 -275 -500 -501 -501 -503 -1 -1 318 -2 708 -1
l710 1 -225 -226 -224 -226 0 -3208 c0 -1765 -3 -3211 -6 -3215 -3 -4 -222
-223 -486 -487 l-481 -481 1263 1 c695 0 1268 -1 1275 -3 8 -3 11 -306 12
-1230 0 -675 0 -1230 1 -1233 0 -3 241 -247 537 -543 l536 -536 740 0 740 0
873 872 872 873 0 3045 c1 1675 1 3054 1 3065 1 13 85 105 232 250 127 127
239 239 248 249 9 10 27 28 40 40 13 12 31 29 40 39 9 10 98 100 199 200 101
100 187 189 192 197 8 14 -94 16 -1014 15 l-1023 0 -72 -60 c-40 -33 -88 -71
-107 -84 -18 -13 -34 -28 -34 -32 0 -5 -6 -9 -14 -9 -8 0 -16 -4 -18 -8 -1 -4
-37 -35 -78 -67 -41 -33 -77 -62 -80 -65 -9 -10 -88 -70 -91 -70 -2 0 -4 647
-4 1438 l0 1437 -534 533 -535 532 -1596 0 -1596 0 -500 -500z m3409 -752
l242 -246 -1 -1019 c-1 -560 -2 -1020 -3 -1023 -1 -3 -356 -5 -791 -5 l-790 1
-237 -237 c-130 -131 -240 -236 -243 -234 -4 2 -5 2981 -1 3005 1 3 357 6 792
5 l791 0 241 -247z m242 -4437 l-1 -1660 -96 -98 c-54 -54 -162 -164 -241
-245 -80 -82 -147 -148 -149 -148 -2 0 -3 751 -3 1668 l0 1669 235 236 c129
130 240 236 245 236 7 1 10 -558 10 -1658z m-1170 1138 c3 -3 -94 -105 -216
-226 l-221 -220 0 -1424 0 -1424 -441 2 c-243 0 -448 1 -455 2 -7 1 86 100
207 222 122 121 222 223 223 227 0 4 2 644 4 1422 1 778 3 1417 3 1420 1 7
889 5 896 -1z m3193 2 c2 -1 -97 -101 -220 -224 l-224 -222 0 -2612 0 -2612
-272 -273 c-149 -150 -410 -413 -579 -584 l-308 -310 -207 0 -208 0 -247 248
-248 247 0 1021 c0 676 3 1020 10 1021 5 1 125 2 267 3 l256 1 535 535 536
536 0 1607 c0 884 2 1610 4 1614 4 6 887 10 905 4z"/>
</g>
</svg>
