<?xml version="1.0" encoding="UTF-8" standalone="no"?>

<svg
    version="1.1"
    width="432.75964"
    height="550.61914"
    viewBox="0 0 432.75965 550.61914"
    xmlns="http://www.w3.org/2000/svg">
    <path
        d="M 0,0 V 63.572 L 31.97,33.656 v -71.051 z"
        id="path14"/>
    <path
        d="M 0,0 V 63.572 L 31.97,33.656 v -71.051 z"
        id="path18"/>
    <path
        d="m 0,0 v -63.572 l -31.97,29.916 v 71.051 z"
        id="path22"/>
    <path
        d="m 0,0 v -63.572 l -31.97,29.916 v 71.051 z"
        id="path26"/>
    <path
        d="m 0,0 v -116.203 l -18.354,-17.59 h -77.929 l 18.798,17.59 v 95.981 h -12.063 l 12.063,11.288 V 98.059 h 59.131 L 0,80.538 V 9.694 h 10.361 z m 35.967,93.211 -37.151,34.764 h -112.268 l -31.971,-29.916 h 50.694 l -18.723,-17.521 v -214.331 l -31.971,-29.917 H -1.184 l 37.151,34.764 V -20.222 H 16.356 L 35.967,-5.54 Z"
        id="path38"/>
    <path
        d="m 0,0 v -116.203 l -18.354,-17.59 h -77.929 l 18.798,17.59 v 95.981 h -12.063 l 12.063,11.288 V 98.059 h 59.131 L 0,80.538 V 9.694 h 10.361 z m 35.967,93.211 -37.151,34.764 h -112.268 l -31.971,-29.916 h 50.694 l -18.723,-17.521 v -214.331 l -31.971,-29.917 H -1.184 l 37.151,34.764 V -20.222 H 16.356 L 35.967,-5.54 Z"
        id="path42"/>
    <path
        d="M 0,0 V -96.051 H 35.967 V 17.936 l 21.24,19.806 10.361,9.695 H -0.37 L -32.341,17.521 H 18.797 Z M 113.526,47.437 93.174,32.202 73.563,17.521 h 58.76 L 113.526,0 V -174.305 L 71.12,-214.331 H 54.765 l -18.798,17.589 v 70.774 H 0 v -83.516 l 37.151,-34.763 h 51.213 l 61.129,57.201 V 17.521 l 31.971,29.916 z"
        id="path46"/>
    <path
        d="M 0,0 V -96.051 H 35.967 V 17.936 l 21.24,19.806 10.361,9.695 H -0.37 L -32.341,17.521 H 18.797 Z M 113.526,47.437 93.174,32.202 73.563,17.521 h 58.76 L 113.526,0 V -174.305 L 71.12,-214.331 H 54.765 l -18.798,17.589 v 70.774 H 0 v -83.516 l 37.151,-34.763 h 51.213 l 61.129,57.201 V 17.521 l 31.971,29.916 z"
        id="path50"/>
</svg>
