<?xml version="1.0" encoding="UTF-8" standalone="no"?>
<!-- Created with Inkscape (http://www.inkscape.org/) -->

<svg
   width="97.012451mm"
   height="16.414413mm"
   viewBox="0 0 97.012451 16.414413"
   version="1.1"
   id="svg5"
   xml:space="preserve"
   xmlns="http://www.w3.org/2000/svg"
   xmlns:svg="http://www.w3.org/2000/svg"><defs
     id="defs2" /><g
     id="g2829"><path
       d="M 0,0 -4.32,-4.32 H 2.538 L 0,-6.858 V -37.8 l -4.32,-4.32 h 19.494 l 5.021,5.022 V -5.022 L 15.174,0 Z M 12.852,-37.8 H 2.321 l 2.538,2.538 V -4.32 h 7.993 l 2.484,-2.538 v -28.404 z"
       style="fill:none;stroke:#f1eee6;stroke-width:1.2;stroke-linecap:butt;stroke-linejoin:miter;stroke-miterlimit:10;stroke-dasharray:none;stroke-opacity:1"
       id="path2831" /></g><g
     id="g2833"
     transform="matrix(0.35277776,0,0,-0.35277778,18.093667,13.217302)"><path
       d="M 0,0 V 12.15 L -2.861,15.012 0,17.874 V 30.24 l -5.021,5.022 h -13.554 l -4.321,-4.32 h 6.859 l -2.538,-2.538 V -2.538 l -4.321,-4.32 h 9.18 l 3.78,4.32 h -6.318 L -13.716,0 v 12.852 h 6.372 l 2.485,-2.538 V -2.538 L -9.18,-6.858 H 0 l 4.32,4.32 h -6.857 z m -13.716,15.012 v 15.93 h 6.372 l 2.485,-2.538 V 19.71 l -2.485,-2.538 h -4.212 z"
       style="fill:none;stroke:#f1eee6;stroke-width:1.2;stroke-linecap:butt;stroke-linejoin:miter;stroke-miterlimit:10;stroke-dasharray:none;stroke-opacity:1"
       id="path2835" /></g><g
     id="g2837"
     transform="matrix(0.35277776,0,0,-0.35277778,23.617867,2.3016917)"><path
       d="M 0,0 4.32,4.32 H -4.859 L -9.18,0 h 6.804 L -4.859,-2.484 V -33.48 L -9.18,-37.8 H 0 l 4.32,4.32 H -2.538 L 0,-30.942 Z"
       style="fill:none;stroke:#f1eee6;stroke-width:1.2;stroke-linecap:butt;stroke-linejoin:miter;stroke-miterlimit:10;stroke-dasharray:none;stroke-opacity:1"
       id="path2839" /></g><g
     id="g2841"
     transform="matrix(0.35277776,0,0,-0.35277778,27.046767,0.77776166)"><path
       d="M 0,0 -4.32,-4.32 H 2.538 L 0,-6.858 V -37.8 l -4.32,-4.32 H 4.859 L 9.18,-37.8 H 2.321 l 2.538,2.538 v 12.042 h 8.695 l 5.021,5.022 V -5.022 L 13.554,0 Z M 11.231,-18.9 H 7.02 l -2.161,-2.16 v 16.74 h 6.372 l 2.485,-2.538 v -9.504 z"
       style="fill:none;stroke:#f1eee6;stroke-width:1.2;stroke-linecap:butt;stroke-linejoin:miter;stroke-miterlimit:10;stroke-dasharray:none;stroke-opacity:1"
       id="path2843" /></g><g
     id="g2845"
     transform="matrix(0.35277776,0,0,-0.35277778,39.314767,2.3016917)"><path
       d="M 0,0 H 7.937 L 5.399,-2.538 v -25.164 l -5.723,-5.778 h -2.214 l -2.538,2.538 V 0.054 L -0.811,4.32 H -9.99 L -14.311,0 h 6.913 l -2.539,-2.538 v -30.24 l 5.023,-5.022 h 6.912 l 8.262,8.262 V 0 l 4.32,4.32 H 5.399 Z"
       style="fill:none;stroke:#f1eee6;stroke-width:1.2;stroke-linecap:butt;stroke-linejoin:miter;stroke-miterlimit:10;stroke-dasharray:none;stroke-opacity:1"
       id="path2847" /></g><g
     id="g2849"
     transform="matrix(0.35277776,0,0,-0.35277778,47.887167,8.8168917)"><path
       d="m 0,0 h 7.614 l 4.321,4.32 H 2.16 L 0,2.16 v 16.308 h 10.584 l 4.32,4.32 H -4.859 l -4.321,-4.32 h 6.804 l -2.483,-2.484 v -30.996 l -4.321,-4.32 h 19.332 l 4.321,4.32 H -2.538 L 0,-12.474 Z"
       style="fill:none;stroke:#f1eee6;stroke-width:1.2;stroke-linecap:butt;stroke-linejoin:miter;stroke-miterlimit:10;stroke-dasharray:none;stroke-opacity:1"
       id="path2851" /></g><g
     id="g2853"
     transform="matrix(0.35277776,0,0,-0.35277778,61.602767,13.217302)"><path
       d="M 0,0 V 12.15 L -2.861,15.012 0,17.874 V 30.24 l -5.021,5.022 h -13.554 l -4.321,-4.32 h 6.859 l -2.538,-2.538 V -2.538 l -4.321,-4.32 h 9.18 l 3.78,4.32 h -6.318 L -13.716,0 v 12.852 h 6.372 l 2.485,-2.538 V -2.538 L -9.18,-6.858 H 0 l 4.32,4.32 h -6.857 z m -13.716,15.012 v 15.93 h 6.372 l 2.485,-2.538 V 19.71 l -2.485,-2.538 h -4.212 z"
       style="fill:none;stroke:#f1eee6;stroke-width:1.2;stroke-linecap:butt;stroke-linejoin:miter;stroke-miterlimit:10;stroke-dasharray:none;stroke-opacity:1"
       id="path2855" /></g><g
     id="g2857"
     transform="matrix(0.35277776,0,0,-0.35277778,69.337067,7.1594717)"><path
       d="m 0,0 h -7.83 l -2.484,2.538 v 8.694 l 2.484,2.538 h 4.374 L 0.216,10.044 V 4.806 l 4.319,4.32 v 9.72 L 0.701,15.012 -2.431,18.09 h -7.721 l -5.023,-5.022 V 0.702 l 5.023,-5.022 h 7.83 l 2.483,-2.538 v -10.314 l -2.483,-2.538 h -4.267 l -3.672,3.726 v 5.238 l -4.319,-4.32 v -9.72 l 3.888,3.888 3.078,-3.132 H 0 l 5.021,5.022 v 13.986 z"
       style="fill:none;stroke:#f1eee6;stroke-width:1.2;stroke-linecap:butt;stroke-linejoin:miter;stroke-miterlimit:10;stroke-dasharray:none;stroke-opacity:1"
       id="path2859" /></g><g
     id="g2861"
     transform="matrix(0.35277776,0,0,-0.35277778,75.585067,2.3016917)"><path
       d="M 0,0 4.32,4.32 H -4.859 L -9.18,0 h 6.804 L -4.859,-2.484 V -33.48 L -9.18,-37.8 H 0 l 4.32,4.32 H -2.538 L 0,-30.942 Z"
       style="fill:none;stroke:#f1eee6;stroke-width:1.2;stroke-linecap:butt;stroke-linejoin:miter;stroke-miterlimit:10;stroke-dasharray:none;stroke-opacity:1"
       id="path2863" /></g><g
     id="g2865"
     transform="matrix(0.35277776,0,0,-0.35277778,84.995667,2.3016917)"><path
       d="M 0,0 4.319,4.32 H -18.576 L -22.896,0 h 13.391 l -2.483,-2.484 V -33.48 l -4.321,-4.32 h 9.181 l 4.319,4.32 h -6.857 l 2.538,2.538 V 0 Z"
       style="fill:none;stroke:#f1eee6;stroke-width:1.2;stroke-linecap:butt;stroke-linejoin:miter;stroke-miterlimit:10;stroke-dasharray:none;stroke-opacity:1"
       id="path2867" /></g><g
     id="g2869"
     transform="matrix(0.35277776,0,0,-0.35277778,91.739067,2.3016917)"><path
       d="M 0,0 H 7.128 L 4.32,-2.808 V -9.072 L -0.864,-14.31 H -1.566 L -6.75,-9.072 V 0 h 0.054 l 4.32,4.32 h -9.18 L -15.876,0 h 7.074 l -2.808,-2.808 v -8.1 l 8.046,-8.046 v -14.58 L -7.83,-37.8 h 9.18 l 4.32,4.32 h -6.912 l 2.538,2.538 v 12.15 l 7.884,7.884 V 0 L 13.5,4.32 H 4.32 Z"
       style="fill:none;stroke:#f1eee6;stroke-width:1.2;stroke-linecap:butt;stroke-linejoin:miter;stroke-miterlimit:10;stroke-dasharray:none;stroke-opacity:1"
       id="path2871" /></g></svg>
